<svg xmlns="http://www.w3.org/2000/svg" viewBox="0 0 64 64" role="img" aria-label="Сказочный кошелек">
  <defs>
    <linearGradient id="bg" x1="0" y1="0" x2="1" y2="1">
      <stop offset="0" stop-color="#e6f6ff"/>
      <stop offset="1" stop-color="#dff7e8"/>
    </linearGradient>
    <linearGradient id="wallet" x1="0" y1="0" x2="1" y2="1">
      <stop offset="0" stop-color="#7b4f2a"/>
      <stop offset="1" stop-color="#a86c3d"/>
    </linearGradient>
    <linearGradient id="flap" x1="0" y1="0" x2="1" y2="1">
      <stop offset="0" stop-color="#c58a4f"/>
      <stop offset="1" stop-color="#e3ad73"/>
    </linearGradient>
  </defs>

  <rect width="64" height="64" rx="18" fill="url(#bg)"/>

  <path d="M16 29c0-5 4-9 9-9h20c5 0 9 4 9 9v14c0 5-4 9-9 9H25c-5 0-9-4-9-9V29z" fill="url(#wallet)"/>
  <path d="M14 32c0-3 2-5 5-5h30c3 0 5 2 5 5v7H14v-7z" fill="#6a4123" opacity="0.35"/>
  <path d="M18 24c0-4 3-7 7-7h14c4 0 7 3 7 7v6H18v-6z" fill="url(#flap)"/>
  <circle cx="41" cy="27" r="3.4" fill="#ffd86b"/>
  <circle cx="41" cy="27" r="1.2" fill="#fff5c6"/>

  <path d="M10 16l1.3 2.8L14 20l-2.7 1.2L10 24l-1.3-2.8L6 20l2.7-1.2L10 16z" fill="#fff7ae"/>
  <path d="M53 11l1 2.1 2.1 1-2.1 1L53 17l-1-2.1-2.1-1 2.1-1L53 11z" fill="#ffe78f"/>
  <path d="M52 45l1.2 2.5 2.5 1.2-2.5 1.2L52 53l-1.2-2.5-2.5-1.2 2.5-1.2L52 45z" fill="#fff2b8"/>

  <path d="M24 41c2.7 0 4.6-2 5.2-3.7.5 1.7 2.4 3.7 5.1 3.7-2.7 0-4.6 2-5.1 3.7-.6-1.7-2.5-3.7-5.2-3.7z" fill="#f6fff9" opacity="0.95"/>
</svg>
